<svg width="600" height="400" viewBox="0 0 600 400" fill="none" xmlns="http://www.w3.org/2000/svg">
  <rect width="600" height="400" fill="#F5F5F5"/>
  <rect x="50" y="50" width="500" height="300" rx="10" fill="white" stroke="#E0E0E0" stroke-width="2"/>
  
  <!-- Header -->
  <rect x="70" y="70" width="460" height="60" rx="5" fill="#F9F4FF"/>
  <circle cx="100" cy="100" r="15" fill="#4A1D96"/>
  <rect x="130" y="90" width="120" height="20" rx="5" fill="#E0E0E0"/>
  <rect x="350" y="90" width="80" height="20" rx="5" fill="#E0E0E0"/>
  <rect x="450" y="90" width="60" height="20" rx="5" fill="#4A1D96"/>
  
  <!-- Main content -->
  <rect x="70" y="150" width="300" height="180" rx="5" fill="#F9F4FF"/>
  <rect x="90" y="170" width="260" height="20" rx="5" fill="#E0E0E0"/>
  <rect x="90" y="200" width="200" height="20" rx="5" fill="#E0E0E0"/>
  <rect x="90" y="230" width="240" height="20" rx="5" fill="#E0E0E0"/>
  <rect x="90" y="290" width="100" height="30" rx="5" fill="#4A1D96"/>
  <rect x="200" y="290" width="100" height="30" rx="5" stroke="#4A1D96" stroke-width="2" fill="white"/>
  
  <!-- Side panel -->
  <rect x="390" y="150" width="140" height="180" rx="5" fill="white" stroke="#E0E0E0" stroke-width="2"/>
  <circle cx="460" cy="190" r="30" fill="#F9F4FF" stroke="#4A1D96" stroke-width="2"/>
  <rect x="410" y="240" width="100" height="15" rx="5" fill="#E0E0E0"/>
  <rect x="410" y="265" width="100" height="15" rx="5" fill="#E0E0E0"/>
  <rect x="410" y="290" width="100" height="15" rx="5" fill="#E0E0E0"/>
  
  <!-- KYC/AML Text -->
  <text x="300" y="350" font-family="Arial" font-size="14" text-anchor="middle" fill="#4A1D96">KYC/AML Dashboard</text>
</svg> 