<svg xmlns="http://www.w3.org/2000/svg" width="800" height="600" viewBox="0 0 800 600">
  <defs>
    <linearGradient id="grad1" x1="0%" y1="0%" x2="100%" y2="100%">
      <stop offset="0%" style="stop-color:#5e35b1;stop-opacity:0.8" />
      <stop offset="100%" style="stop-color:#7e57c2;stop-opacity:0.9" />
    </linearGradient>
  </defs>
  
  <!-- Background -->
  <rect width="800" height="600" fill="#f5f5f5" rx="12" ry="12" />
  
  <!-- Dashboard Elements -->
  <rect x="50" y="50" width="700" height="500" rx="8" ry="8" fill="#ffffff" stroke="#e0e0e0" stroke-width="2" />
  
  <!-- Header -->
  <rect x="50" y="50" width="700" height="60" rx="8" ry="8" fill="#5e35b1" />
  <circle cx="100" cy="80" r="15" fill="#ffffff" />
  <rect x="130" y="70" width="120" height="20" rx="4" ry="4" fill="#ffffff" opacity="0.6" />
  
  <!-- Sidebar -->
  <rect x="50" y="110" width="180" height="440" fill="#f9f9f9" />
  
  <!-- Sidebar Menu Items -->
  <rect x="70" y="140" width="140" height="40" rx="4" ry="4" fill="#7e57c2" opacity="0.2" />
  <rect x="80" y="155" width="100" height="10" rx="2" ry="2" fill="#5e35b1" />
  
  <rect x="70" y="190" width="140" height="10" rx="2" ry="2" fill="#757575" opacity="0.3" />
  <rect x="70" y="210" width="140" height="10" rx="2" ry="2" fill="#757575" opacity="0.3" />
  <rect x="70" y="230" width="140" height="10" rx="2" ry="2" fill="#757575" opacity="0.3" />
  <rect x="70" y="250" width="140" height="10" rx="2" ry="2" fill="#757575" opacity="0.3" />
  
  <!-- Main Content Area -->
  <rect x="260" y="120" width="470" height="180" rx="8" ry="8" fill="url(#grad1)" />
  
  <!-- Content Area Text -->
  <rect x="280" y="150" width="200" height="20" rx="4" ry="4" fill="#ffffff" />
  <rect x="280" y="180" width="250" height="15" rx="4" ry="4" fill="#ffffff" opacity="0.7" />
  <rect x="280" y="205" width="180" height="15" rx="4" ry="4" fill="#ffffff" opacity="0.7" />
  <rect x="280" y="240" width="120" height="40" rx="20" ry="20" fill="#ffffff" />
  <rect x="300" y="255" width="80" height="10" rx="2" ry="2" fill="#5e35b1" />
  
  <!-- Data Cards -->
  <rect x="260" y="320" width="220" height="120" rx="8" ry="8" fill="#ffffff" stroke="#e0e0e0" stroke-width="1" />
  <rect x="280" y="340" width="180" height="15" rx="4" ry="4" fill="#333333" opacity="0.7" />
  <rect x="280" y="370" width="80" height="40" rx="4" ry="4" fill="#5e35b1" opacity="0.2" />
  <rect x="290" y="385" width="60" height="10" rx="2" ry="2" fill="#5e35b1" />
  
  <rect x="510" y="320" width="220" height="120" rx="8" ry="8" fill="#ffffff" stroke="#e0e0e0" stroke-width="1" />
  <rect x="530" y="340" width="180" height="15" rx="4" ry="4" fill="#333333" opacity="0.7" />
  <rect x="530" y="370" width="80" height="40" rx="4" ry="4" fill="#5e35b1" opacity="0.2" />
  <rect x="540" y="385" width="60" height="10" rx="2" ry="2" fill="#5e35b1" />
  
  <!-- Table -->
  <rect x="260" y="460" width="470" height="90" rx="8" ry="8" fill="#ffffff" stroke="#e0e0e0" stroke-width="1" />
  <rect x="280" y="480" width="430" height="1" fill="#e0e0e0" />
  <rect x="280" y="510" width="430" height="1" fill="#e0e0e0" />
  
  <rect x="280" y="490" width="100" height="10" rx="2" ry="2" fill="#333333" opacity="0.7" />
  <rect x="400" y="490" width="80" height="10" rx="2" ry="2" fill="#333333" opacity="0.7" />
  <rect x="500" y="490" width="60" height="10" rx="2" ry="2" fill="#333333" opacity="0.7" />
  <rect x="580" y="490" width="40" height="10" rx="2" ry="2" fill="#333333" opacity="0.7" />
  <rect x="280" y="520" width="100" height="10" rx="2" ry="2" fill="#757575" opacity="0.5" />
  <rect x="400" y="520" width="80" height="10" rx="2" ry="2" fill="#757575" opacity="0.5" />
  <rect x="500" y="520" width="60" height="10" rx="2" ry="2" fill="#757575" opacity="0.5" />
  <rect x="580" y="520" width="70" height="20" rx="10" ry="10" fill="#5e35b1" opacity="0.2" />
  <rect x="590" y="525" width="50" height="10" rx="2" ry="2" fill="#5e35b1" />
</svg> 